<svg width="57" height="45" viewBox="0 0 57 45" fill="none" xmlns="http://www.w3.org/2000/svg">
    <g clip-path="url(#clip0_690_10198)">
        <path d="M28.4777 37.6309C28.8415 37.4684 29.2228 37.3389 29.5652 37.1433C30.1015 36.8355 30.6164 36.4931 31.1285 36.1441C31.2291 36.0764 31.3395 35.9317 31.3384 35.8239C31.3313 35.165 31.5994 34.6053 31.9736 34.0966C32.6209 33.2155 33.3353 32.386 34.2887 31.8144C34.648 31.5976 35.0673 31.4595 35.4783 31.3571C35.8135 31.2742 35.9525 31.44 35.9146 31.7873C35.8278 32.587 35.4311 33.2464 34.8744 33.8007C34.2887 34.3832 33.6551 34.9185 33.0429 35.4755C32.9166 35.5794 32.7986 35.6928 32.6902 35.8147C32.6352 35.8813 32.5951 36.0173 32.6292 36.0742C32.6632 36.1311 32.8094 36.1891 32.8863 36.1696C33.0807 36.1234 33.2676 36.0504 33.4413 35.9529C34.9357 35.0867 36.2882 34.0021 37.4527 32.736C37.6601 32.5225 37.903 32.3455 38.1709 32.2126C38.4011 32.0918 38.5583 32.2365 38.4786 32.4868C38.421 32.6483 38.3294 32.796 38.2099 32.9202C37.9829 33.1673 37.7302 33.3905 37.4955 33.6295C37.3779 33.7487 37.2757 33.8804 37.1631 34.0088L37.2048 34.0998C37.3175 34.0814 37.4466 34.0917 37.5395 34.0397C38.1742 33.6831 38.8132 33.332 39.4276 32.9435C40.6848 32.1443 41.7673 31.1463 42.7866 30.0789C42.8306 30.0328 42.8757 29.9879 42.924 29.9461C43.0548 29.8318 43.2191 29.7327 43.3603 29.8681C43.4378 29.9423 43.4186 30.1157 43.4406 30.2474C43.4416 30.2954 43.4388 30.3434 43.4323 30.391C43.5285 30.2994 43.5906 30.2458 43.6466 30.1862C43.9642 29.8481 44.2758 29.5056 44.5978 29.1719C44.772 28.9914 44.9682 28.8977 45.2022 29.1475C45.3182 28.9849 45.4122 28.8175 45.5374 28.6793C45.6649 28.5277 45.8163 28.3973 45.9858 28.293C46.0792 28.2388 46.2798 28.2475 46.3468 28.3131C46.4139 28.3786 46.3952 28.5526 46.3809 28.675C46.371 28.7574 46.304 28.8332 46.2556 28.9248C46.3355 28.9961 46.4394 29.0357 46.5471 29.0357C46.6549 29.0357 46.7588 28.9961 46.8386 28.9248C47.0865 28.7221 47.2947 28.4707 47.5085 28.2296C47.6156 28.1093 47.681 27.9511 47.7937 27.8379C48.1162 27.5128 48.486 27.4619 48.8927 27.6694C49.0617 27.7593 49.2255 27.8584 49.3834 27.9663C49.823 28.2567 50.2626 28.2421 50.6923 27.9549C51.7154 27.2711 52.3957 26.3294 52.7804 25.1813C52.8749 24.8995 52.9106 24.5956 53.0265 24.3241C53.1287 24.108 53.2678 23.9108 53.4376 23.7411C53.4969 23.6783 53.6832 23.6609 53.7601 23.707C53.8244 23.7454 53.8486 23.9129 53.8299 24.012C53.5872 25.3737 52.9253 26.6287 51.9341 27.6065C51.6119 27.9255 51.257 28.2107 50.8753 28.4577C50.3977 28.7677 49.8713 28.7465 49.3521 28.5238C49.2707 28.4892 49.1872 28.4615 49.1553 28.4502C49.0454 28.5889 48.9833 28.7281 48.874 28.8013C48.513 29.0435 48.1316 29.1908 47.6926 28.9606C47.6338 28.9297 47.4925 28.9925 47.4233 29.0505C47.0123 29.3962 46.6243 29.7825 46.0847 29.9223C45.8523 29.9824 45.5973 29.9564 45.3528 29.9694C44.9006 30.2068 44.4187 30.4511 43.9439 30.7134C43.7168 30.8293 43.5053 30.9728 43.3142 31.1403C42.9026 31.5267 42.4833 31.8593 41.8855 31.9271C41.6778 31.9504 41.4662 32.1059 41.2942 32.2457C40.1612 33.177 38.9283 33.9833 37.6175 34.6503C37.329 34.7862 37.0282 34.895 36.7191 34.9754C36.4839 35.0431 36.252 35.0296 36.1657 34.6834C35.7674 34.9933 35.3964 35.2826 35.0261 35.5698C34.376 36.0715 33.7073 36.5451 32.9347 36.8523C32.5572 37.0029 32.1962 37.069 31.7989 36.874C31.6714 36.8111 31.4417 36.8664 31.2944 36.939C30.3125 37.4207 29.3448 37.9305 28.3607 38.4073C28.1997 38.4854 27.9799 38.4404 27.7897 38.4669C27.6874 38.479 27.5888 38.5121 27.5002 38.5639C26.7072 39.0635 25.9445 39.6178 25.1192 40.0567C24.59 40.3384 23.9773 40.4858 23.3866 40.6321C22.8877 40.7556 22.5217 40.3113 22.6673 39.8194C22.7223 39.6313 22.7838 39.4444 22.8673 39.1762C22.7113 39.2569 22.619 39.2976 22.5338 39.3496C21.221 40.1434 19.8715 40.8667 18.4224 41.3939C17.6161 41.6936 16.7635 41.8544 15.9019 41.8691C15.1326 41.8794 14.5441 41.6236 14.2474 40.8786C14.2138 40.7952 14.1693 40.7161 14.1309 40.6337C13.8616 40.0621 13.4484 39.8074 12.8275 39.9413C12.1506 40.0931 11.4827 40.2812 10.8267 40.5048C8.82711 41.1701 6.95112 42.1113 5.06524 43.0335C3.90195 43.6024 2.70515 44.1047 1.52153 44.6335C1.25612 44.7527 0.989065 44.8714 0.713766 44.9673C0.480229 45.0485 0.24944 45.0139 0.103823 44.7939C0.0339945 44.697 -0.00269342 44.5806 -0.000914817 44.4618C0.00086379 44.3429 0.0410163 44.2277 0.113714 44.1329C0.248663 43.9515 0.408014 43.7891 0.587382 43.6501C3.27992 41.5592 6.09061 39.6357 8.97822 37.8184C12.8923 35.3552 16.9404 33.1213 21.0507 30.9951C21.1397 30.9491 21.2205 30.8808 21.3145 30.8521C21.9568 30.6565 22.2074 30.1726 22.4288 29.5831C23.2454 27.4093 24.1141 25.2544 24.9692 23.0947C25.5275 21.6832 26.0803 20.2685 26.6677 18.8684C26.9858 18.1099 26.8935 17.341 26.8364 16.5722C26.7862 15.8705 26.6976 15.1719 26.571 14.4796C26.4698 13.9416 26.2885 13.4171 26.1242 12.8926C25.5797 11.1506 25.0137 9.41244 24.8054 7.59243C24.751 7.05499 24.7626 6.51303 24.84 5.97833C24.912 5.44788 25.239 5.0648 25.7824 4.88221C26.41 4.67143 26.999 4.38914 27.4617 3.8977C27.2221 4.30516 26.8545 4.57228 26.4534 4.80039C26.2885 4.89827 26.115 4.9815 25.9352 5.04909C25.3307 5.26582 25.1208 5.73775 25.0703 6.31209C24.9917 7.1969 25.1802 8.05841 25.3665 8.91287C25.6088 10.0236 25.8885 11.1268 26.1797 12.2256C26.3446 12.8438 26.6001 13.4393 26.7457 14.0608C26.8941 14.6909 26.9589 15.3406 27.0573 15.9821C27.0963 16.2406 27.1172 16.5023 27.1622 16.7596C27.3271 17.7089 27.1259 18.6149 26.7962 19.4926C26.0302 21.531 25.2335 23.5563 24.4603 25.5936C23.9279 26.9959 23.4163 28.4052 22.8926 29.8112C22.8723 29.8654 22.8629 29.9261 22.8327 30.048C23.2866 29.8091 23.6883 29.6015 24.0856 29.3864C24.8483 28.9741 25.6115 28.5639 26.3649 28.137C26.5036 28.0565 26.6147 27.9369 26.6836 27.7935C27.0737 26.9184 27.4677 26.0428 27.8112 25.1493C27.9414 24.8118 27.9409 24.4254 27.9991 24.0613C28.0239 23.9558 28.0386 23.8483 28.0431 23.74C28.0216 23.1863 28.2843 22.7723 28.6514 22.38C28.8294 22.1893 28.9415 21.9233 29.036 21.6757C29.3141 20.9182 29.5987 20.1824 30.1537 19.5739C30.2746 19.4417 30.3345 19.2217 30.3504 19.0359C30.382 18.6851 30.382 18.3322 30.3504 17.9815C30.3202 17.665 30.474 17.58 30.7438 17.5431C31.3273 17.4656 31.8826 17.2481 32.361 16.9097C32.4282 16.8654 32.4836 16.8059 32.5226 16.7361C32.5616 16.6664 32.5831 16.5884 32.5852 16.5088C32.7775 14.504 32.9545 12.4992 33.1941 10.5031C33.3474 9.22334 33.6073 7.95654 33.7985 6.68054C33.8535 6.30126 33.9007 5.90247 33.8535 5.52373C33.7743 4.87787 33.3204 4.46771 32.7654 4.18162C31.9176 3.74545 31.0433 3.56935 30.1427 4.04725C30.0378 4.10204 29.9393 4.16819 29.8493 4.24447C29.7009 4.37289 29.5492 4.38697 29.3668 4.3225C28.8255 4.13177 28.5557 4.25531 28.3469 4.78955C28.1046 5.41049 27.8716 6.03576 27.6101 6.72063C28.1799 6.7927 28.7008 6.87072 29.2245 6.91623C29.3699 6.91977 29.5117 6.87149 29.624 6.78023C30.3933 6.13004 31.2972 6.01084 32.2566 6.14683C32.5902 6.19397 32.916 6.30938 33.2457 6.36736C33.4716 6.40583 33.5419 6.50498 33.4858 6.71576C33.4578 6.81816 33.443 6.9249 33.4204 7.04085L33.1215 7.00889C33.1039 7.24404 33.088 7.46294 33.0715 7.68238H33.032C33.0083 7.60219 32.9825 7.52254 32.9622 7.44181C32.7973 6.79161 32.6682 6.67783 31.9918 6.62906C31.4318 6.59059 30.8735 6.59168 30.3389 6.7954C30.2273 6.8354 30.1197 6.88546 30.0174 6.94495C29.6075 7.19473 29.5338 7.36595 29.6547 7.8238C29.8278 8.47833 30.1207 9.05808 30.7537 9.41027L30.6911 9.48071C30.4883 9.31816 30.2411 9.18433 30.0938 8.98169C29.8509 8.64738 29.6828 8.26159 29.4641 7.90886C29.3602 7.7409 29.2113 7.60002 29.0827 7.44668C28.9563 7.59298 28.7827 7.7176 28.7112 7.88936C28.3997 8.6295 28.1068 9.3783 27.8321 10.132C27.7298 10.4094 28.0139 10.7936 28.3958 10.9193C28.5662 10.9734 28.7525 10.9837 28.9552 11.0179V11.745C28.076 12.0371 27.7963 12.9002 28.4019 13.4697C28.5239 13.2627 28.6283 13.0947 28.4436 12.8411C28.1727 12.4689 28.3706 12.0934 28.8283 12.0566C29.968 11.9639 31.0867 12.1037 32.1945 12.3557C32.0604 13.1874 31.2675 13.9221 30.357 14.1052C29.9652 14.1838 29.5877 14.1708 29.2333 13.9969C29.0085 13.8885 28.8662 13.9345 28.7667 14.1459C28.6601 14.3723 28.7426 14.5864 28.98 14.6714C29.5603 14.8863 30.1996 14.8883 30.7812 14.6769C30.8318 14.659 30.8829 14.6422 30.9428 14.6227C30.723 14.8936 30.213 15.1266 29.7564 15.1136C29.4877 15.1054 29.3492 15.21 29.2569 15.4295C29.1899 15.5871 29.1118 15.7415 29.0596 15.9041C28.9695 16.1869 29.0179 16.2579 29.3228 16.2872C30.1608 16.3679 30.9625 16.2102 31.7406 15.9079C31.8154 15.8792 31.8901 15.8494 31.9692 15.8179C32.0016 16.4102 31.7681 16.7932 31.2274 16.945C30.5984 17.1321 29.9597 17.2862 29.3141 17.4066C28.8684 17.483 28.7646 17.3578 28.714 16.9162C28.7052 16.836 28.6821 16.7499 28.7003 16.674C28.8206 16.1712 28.597 15.7914 28.3156 15.3926C27.2276 13.8609 26.9287 12.1178 27.0045 10.2918C27.0221 9.87625 26.9853 9.51268 26.7298 9.15019C26.5149 8.84677 26.3929 8.47237 26.2698 8.11584C26.2022 7.92078 26.1121 7.79075 25.9264 7.69647C25.6555 7.56101 25.5346 7.07986 25.7126 6.83496C25.7599 6.77048 25.8775 6.73039 25.9671 6.72659C26.388 6.7098 26.8094 6.71576 27.2309 6.69896C27.3139 6.69571 27.4507 6.64749 27.4683 6.59059C27.6881 5.95286 27.8892 5.30971 28.1189 4.59449L27.5694 4.79064C27.8958 4.4249 28.1821 4.09276 28.4816 3.77362C28.6024 3.64521 28.7525 3.636 28.8953 3.7655C28.9571 3.81938 29.0232 3.86813 29.0932 3.91125C29.4888 4.16482 29.5273 4.12798 29.8624 3.81968C30.0813 3.61625 30.3445 3.46484 30.6317 3.377C31.2291 3.19317 31.8625 3.15359 32.4786 3.26159C33.4743 3.44473 34.1271 4.2591 34.2051 5.39261C34.2705 6.32943 34.0903 7.24187 33.965 8.16298C33.695 10.1497 33.4455 12.1373 33.2166 14.1258C33.0056 15.9361 32.8166 17.749 32.6347 19.562C32.5182 20.7204 32.4336 21.8821 32.3319 23.0422C32.2907 23.5092 32.2401 23.9757 32.1973 24.4428C32.1813 24.6113 32.1747 24.7809 32.1599 25.0155C32.372 24.9163 32.5341 24.8448 32.6924 24.7663C33.8606 24.1854 35.0285 23.6042 36.196 23.0226C36.4202 22.911 36.6477 22.8368 36.9334 23.0172C36.8092 23.1727 36.7136 23.3228 36.5878 23.4458C36.0932 23.9373 35.5014 24.2894 34.8733 24.5988C32.2544 25.8905 29.624 27.1611 27.0358 28.5103C23.5745 30.3119 20.1473 32.1638 16.7267 34.0245C14.8205 35.061 12.9209 36.1159 11.0669 37.2419C9.21286 38.3678 7.42864 39.5717 5.62958 40.7638C4.26298 41.6702 2.9211 42.6141 1.56988 43.5439C1.36272 43.6858 1.14128 43.8208 1.07534 44.1697C1.24019 44.1301 1.37591 44.1215 1.48801 44.0689C2.78373 43.4583 4.0679 42.8227 5.37131 42.2299C7.07476 41.4551 8.7782 40.6852 10.5053 39.9656C11.2416 39.6584 12.0301 39.4666 12.8055 39.2613C13.0714 39.1903 13.3715 39.2011 13.6506 39.2288C14.3034 39.2938 14.7062 39.6693 14.9073 40.2799C15.1145 40.9095 15.4183 41.1425 16.0948 41.1615C17.0718 41.1886 17.9993 40.9447 18.8972 40.5925C20.5567 39.9423 22.0903 39.0673 23.5405 38.0459C23.6982 37.9376 23.8218 37.7669 23.9378 37.6087C25.023 36.1333 26.0742 34.6335 27.1924 33.183C28.1496 31.9482 29.2339 30.8145 30.4279 29.7998C30.4905 29.7457 30.5493 29.672 30.6224 29.653C30.7631 29.625 30.9056 29.6069 31.0488 29.5988C31.0587 29.7419 31.1235 29.9082 31.0708 30.0236C30.263 31.8046 29.2712 33.4707 27.9288 34.9212C26.7787 36.1631 25.5357 37.3053 24.2433 38.4019C23.9257 38.6728 23.7114 39.0846 23.5174 39.4655C23.3525 39.7906 23.5531 40.0074 23.9103 39.9136C24.2977 39.8123 24.7027 39.718 25.0461 39.5268C25.7368 39.139 26.4065 38.7158 27.0523 38.2589C27.3023 38.0828 27.4606 37.7821 27.6694 37.5458C27.8462 37.3329 28.0393 37.1337 28.2469 36.9498C28.3134 36.8956 28.4755 36.9498 28.5937 36.9547C28.5864 37.054 28.5711 37.1525 28.548 37.2495C28.5077 37.3554 28.4603 37.4585 28.4063 37.5583C28.4332 37.5832 28.4557 37.6071 28.4777 37.6309ZM28.4733 26.8534L28.5393 26.8989C29.1838 26.5603 29.8185 26.2043 30.4779 25.8916C30.7779 25.7497 30.9367 25.5438 31.0494 25.2512C31.4093 24.3149 31.7813 23.3835 32.1588 22.4537C32.3852 21.8967 32.4336 21.343 32.2138 20.7708C31.9824 20.1629 31.7384 19.5571 31.5544 18.9351C31.4313 18.5206 31.1032 18.4144 30.7851 18.2421C30.7598 18.2919 30.7378 18.3147 30.7383 18.3375C30.7471 19.2618 30.6345 20.1943 30.9543 21.097C31.0003 21.2291 30.9978 21.3729 30.9472 21.5034C30.3224 22.8178 29.6751 24.1215 29.0519 25.4365C28.8349 25.8971 28.6645 26.3804 28.4733 26.8534ZM28.8887 13.1083L28.831 13.1624C28.8607 13.2676 28.8635 13.3938 28.9261 13.4745C29.1366 13.7454 29.4476 13.7904 29.7674 13.7725C30.5131 13.7303 31.134 13.4052 31.6818 12.9267C31.7148 12.898 31.7198 12.8384 31.7549 12.7485L31.1823 12.7978L31.5956 12.4434C31.4236 12.4071 31.3318 12.3687 31.2411 12.3714C30.5103 12.392 29.7789 12.4142 29.0481 12.4494C28.7508 12.4635 28.6541 12.6282 28.7602 12.9034C28.7961 12.9757 28.8392 13.0443 28.8887 13.1083ZM25.4895 36.5153C25.5082 36.5342 25.5264 36.5532 25.5445 36.5695C25.6098 36.5266 25.6715 36.4788 25.7291 36.4264C26.5693 35.5373 27.4397 34.6736 28.2343 33.746C28.7376 33.1576 29.1322 32.4781 29.5646 31.8322C29.6613 31.6881 29.7113 31.5137 29.7844 31.3533L29.7097 31.3175C28.0845 32.8654 26.6663 34.6116 25.4895 36.5137V36.5153ZM32.1264 35.0919C32.1681 35.1672 32.1956 35.262 32.2253 35.2626C32.3088 35.2626 32.4171 35.2534 32.4742 35.2024C33.1693 34.5809 33.8732 33.9671 34.5392 33.3158C34.7717 33.0887 34.9189 32.7739 35.0799 32.4814C35.1272 32.3963 35.0871 32.2646 35.0871 32.1563C34.986 32.1747 34.8673 32.1666 34.7865 32.2153C33.8521 32.7537 33.0563 33.4974 32.461 34.3886C32.3176 34.601 32.2363 34.8535 32.1264 35.0919ZM27.6013 8.28381C27.5403 8.00531 27.6013 7.88448 27.876 7.82596C28.0379 7.79917 28.2021 7.78864 28.3662 7.79454C28.4936 7.79454 28.6041 7.80104 28.6129 7.62711C28.6217 7.45319 28.5266 7.39629 28.3821 7.39142C28.1907 7.38229 27.9989 7.38482 27.8079 7.399C27.4408 7.43151 27.3392 7.54584 27.321 7.91374C27.3251 7.99481 27.3241 8.07606 27.3183 8.15702C27.2595 8.49892 27.193 8.83918 27.1292 9.18L27.0045 9.1632C27.0633 8.72973 27.1216 8.29302 27.1809 7.85197C27.0817 7.83626 26.984 7.81196 26.8891 7.77937C26.8223 7.73934 26.7609 7.69129 26.7061 7.63632C26.782 7.5946 26.8561 7.51929 26.9331 7.51712C27.3051 7.50629 27.3677 7.4353 27.3056 7.0441C26.7704 6.96337 26.3819 7.3199 26.4176 7.89261C26.4644 8.64467 26.7831 9.27915 27.3381 9.79714C27.394 9.8411 27.4537 9.88008 27.5166 9.91363C27.2743 9.53706 27.276 9.49805 27.5441 9.11064C27.6216 8.99902 27.6903 8.88145 27.748 8.78988C27.8441 8.7124 27.9997 8.64629 28.0018 8.57315C28.0095 8.35316 27.959 8.13155 27.931 7.91049L27.8623 7.87039L27.6013 8.28381ZM28.4431 14.4065C28.3761 14.0949 28.3431 13.8376 28.2629 13.5937C28.1826 13.3499 28.0431 13.1196 27.9491 12.8758C27.8782 12.6916 27.8392 12.4965 27.7842 12.3053C27.693 11.9802 27.82 11.7288 28.059 11.5131C28.3837 11.2227 28.3821 11.22 28.1008 10.884C28.0714 10.8385 28.0327 10.7995 27.987 10.7697C27.8436 10.7058 27.6694 10.5812 27.5551 10.6196C27.4408 10.6581 27.3392 10.8629 27.3293 10.9989C27.2902 11.5548 27.2776 12.1129 27.2771 12.6705C27.2804 13.481 27.7991 13.9578 28.4447 14.4081L28.4431 14.4065Z" fill="#204F9D"/>
        <path d="M50.8308 22.6479C50.2665 20.9401 49.0906 19.8196 47.43 19.0951C47.5487 19.3834 47.6723 19.6305 47.7531 19.8906C48.013 20.7233 48.0064 21.5843 47.9729 22.4409C47.9364 23.5785 47.7506 24.7066 47.4201 25.797C47.3351 26.0594 47.2318 26.3155 47.1107 26.5637C47.2173 25.8816 47.3503 25.2021 47.4251 24.5161C47.5789 23.1074 47.6723 21.6916 47.4663 20.2774C47.4327 20.0477 47.3492 19.8239 47.2772 19.6007C47.1388 19.1699 46.7827 18.9635 46.3904 18.8161C45.1479 18.3528 43.8468 18.0599 42.5235 17.9454C42.2966 17.9248 42.1444 17.9871 42.0136 18.1686C41.0108 19.5579 39.9629 20.9173 39.0078 22.3375C38.0633 23.7408 37.2099 25.2048 36.3214 26.6347C36.428 26.3708 36.5335 26.0869 36.6554 25.8106C37.9555 22.847 39.7513 20.1199 41.968 17.7433C42.0502 17.6443 42.0897 17.5174 42.0779 17.39C41.8202 15.6681 41.5311 13.9505 41.2861 12.2275C41.1014 10.9325 40.9707 9.63047 40.8118 8.33225C40.7399 7.74166 40.6701 7.14998 40.575 6.56264C40.5118 6.1736 40.2453 5.88156 39.9272 5.69137C39.1612 5.2357 38.3886 4.77839 37.5819 4.40399C35.8926 3.61233 34.0981 3.06086 32.2518 2.76604C31.6466 2.66966 31.0361 2.60995 30.4236 2.58723C29.4202 2.5531 28.5075 2.83431 27.7272 3.49209C27.6662 2.43661 28.2888 1.69322 29.9362 1.5984L29.2218 1.48353C29.2768 1.0376 29.6653 0.616602 30.1477 0.599263C30.7983 0.578132 31.3984 0.391201 32.016 0.229735C32.5381 0.0931945 33.0908 0.0720633 33.6305 0L33.642 0.0758562L31.9067 0.478436V0.575423C34.3052 0.689207 36.5906 1.23754 38.7496 2.29356C38.8914 2.06383 38.8078 1.89424 38.7018 1.73548C38.3721 1.24187 37.8775 0.950368 37.3583 0.694625C37.1791 0.606849 36.9923 0.534785 36.8159 0.443758C38.199 0.762353 39.2474 1.50845 39.8931 2.77958C39.9634 2.90243 40.0566 3.01107 40.1678 3.0998C40.3387 3.24827 40.5371 3.36747 40.7052 3.51918C41.0322 3.81394 41.1113 4.21652 40.941 4.63752L40.5888 4.45709C40.7871 4.75076 40.9987 4.99025 41.1251 5.26983C41.4108 5.89781 41.4092 6.52742 41.0251 7.13264C40.9719 7.22439 40.9509 7.33082 40.9652 7.43552C41.2668 9.40561 41.6026 11.3714 41.874 13.3458C42.0559 14.6679 42.1554 16.0008 42.2741 17.3309C42.296 17.5764 42.3878 17.6647 42.6252 17.7135C44.0753 18.0104 45.5326 18.2846 46.9662 18.6443C48.2108 18.957 49.3291 19.5292 50.0912 20.6133C50.5215 21.2251 50.7545 21.9105 50.8308 22.6479Z" fill="#204F9D"/>
        <path d="M43.6965 37.3207C44.2279 37.3158 44.6642 37.1511 45.0879 36.968C46.1489 36.5101 46.9952 35.7711 47.7639 34.9345C47.8612 34.8261 47.9645 34.6988 48.0909 34.6571C48.2173 34.6154 48.3766 34.6712 48.5211 34.6847C48.5002 34.8158 48.5255 34.986 48.4508 35.071C48.0744 35.5013 47.6738 35.9114 47.2771 36.3243C47.1457 36.4608 47.0023 36.5855 46.8627 36.716L46.8869 36.7941C47.0307 36.7895 47.1742 36.7771 47.3166 36.7567C47.976 36.6261 48.5195 36.269 48.9981 35.8312C50.2564 34.6744 51.4879 33.4884 52.749 32.3343C53.4858 31.6591 54.2557 31.0192 55.0167 30.3707C55.1338 30.2698 55.2694 30.1919 55.4162 30.1415C55.5036 30.1122 55.6569 30.1312 55.7113 30.1902C55.7657 30.2493 55.7723 30.4108 55.7267 30.4817C55.617 30.6576 55.4808 30.816 55.3228 30.9515C54.8607 31.3346 54.3667 31.6808 53.9144 32.0742C53.4452 32.4827 53.0825 32.965 53.0968 33.6319C53.1166 34.5503 53.8661 35.051 54.7195 34.6907C55.147 34.5102 55.5476 34.267 55.9723 34.0773C56.1976 33.9794 56.4347 33.9105 56.6779 33.8725C56.9581 33.8281 57.0818 34.0096 56.9411 34.2518C56.8566 34.3908 56.7444 34.5115 56.6114 34.6067C55.8174 35.1881 54.8997 35.4985 53.9529 35.7223C52.5924 36.0436 51.2263 36.3427 49.8602 36.6375C48.9096 36.8428 48.0584 37.2216 47.3551 37.9021C46.7017 38.5339 46.0286 39.1483 45.3769 39.7774C44.4581 40.6654 43.3394 41.2723 42.27 41.9479C42.1292 42.0324 41.9753 42.0937 41.8145 42.1295C41.7332 42.1495 41.6337 42.0969 41.5397 42.0753C41.5678 41.9799 41.5656 41.8504 41.6293 41.7957C41.8073 41.6406 42.0014 41.5046 42.2085 41.3899C43.607 40.6313 44.8428 39.6652 45.9863 38.5723C46.3671 38.2093 46.7787 37.8772 47.1781 37.5331C47.2289 37.4972 47.283 37.4662 47.3397 37.4405C47.3172 37.4047 47.2946 37.3684 47.2716 37.3321C47.0518 37.4009 46.8358 37.4724 46.616 37.5374C46.487 37.5815 46.3542 37.6137 46.2193 37.6339C45.9445 37.6632 45.7995 37.5017 45.7247 37.2254C45.5148 37.3337 45.3318 37.4508 45.1324 37.5261C44.656 37.706 44.179 37.8929 43.6883 38.0267C43.2393 38.1492 42.9564 38.0208 42.7162 37.6512C42.2217 37.9265 41.715 38.1931 41.2205 38.4824C40.1165 39.1218 39.0351 39.8034 37.8284 40.2509C37.0514 40.5392 36.2525 40.7196 35.4172 40.7093C35.0535 40.705 34.8875 40.6075 34.8677 40.3886C34.8447 40.1258 35.0485 39.9009 35.3711 39.8467C35.4969 39.823 35.6256 39.8175 35.753 39.8305C36.5695 39.9356 37.3344 39.7291 38.0894 39.4664C40.2199 38.7251 42.0848 37.5331 43.7443 36.0528C45.3654 34.6067 46.9012 33.0679 48.4761 31.5714C48.6068 31.4473 48.7371 31.3005 48.897 31.2343C49.0151 31.1856 49.1987 31.2208 49.3184 31.2837C49.363 31.307 49.3586 31.5546 49.2926 31.6293C48.8948 32.0736 48.4914 32.5169 48.0546 32.9238C46.8303 34.0616 45.5852 35.1821 44.3554 36.3167C44.0718 36.5876 43.8218 36.884 43.6965 37.3207ZM49.3619 36.0848L49.4168 36.1699C49.5127 36.1651 49.6081 36.1542 49.7025 36.1374C49.9157 36.0864 50.1262 36.0257 50.3378 35.9678C50.9972 35.7873 51.6615 35.6102 52.3209 35.4259C52.477 35.3815 52.6797 35.3327 52.5055 35.1008C52.2192 34.7216 52.1934 34.3054 52.2912 33.8644C52.3187 33.7398 52.333 33.6119 52.3533 33.4851L52.2901 33.4515C52.2022 33.5214 52.1082 33.5859 52.0275 33.6634C51.8758 33.807 51.7406 33.9679 51.5835 34.105C50.9241 34.6777 50.2586 35.2428 49.5992 35.815C49.5138 35.8993 49.4344 35.9895 49.3619 36.0848Z" fill="#204F9D"/>
        <path d="M55.3235 26.5389C55.346 26.165 55.3389 25.7868 55.3966 25.4184C55.5411 24.5016 55.7142 23.5897 55.8774 22.6757C55.9516 22.2601 56.1521 21.9317 56.5571 21.7545C56.8044 21.6462 56.9687 21.7545 56.9291 22.0179C56.7148 23.4396 56.412 24.8354 55.7285 26.1266C55.646 26.2815 55.5383 26.423 55.4422 26.5709L55.3235 26.5389Z" fill="#204F9D"/>
        <path d="M33.3765 30.3812C33.4127 30.2842 33.4281 30.1715 33.4864 30.0935C33.6974 29.8226 33.8842 29.5143 34.1535 29.3176C34.715 28.9058 35.3162 28.5433 35.9168 28.1868C36.1915 28.0242 36.4767 28.1705 36.6471 28.4994C36.7867 28.7703 36.7257 29.0163 36.4487 29.1615C36.2492 29.2661 36.0239 29.3208 35.8168 29.4124C35.136 29.7147 34.4584 30.0247 33.7787 30.3292C33.6688 30.3779 33.5551 30.4143 33.443 30.456L33.3765 30.3812Z" fill="#204F9D"/>
        <path d="M29.3097 10.9668C29.8977 11.0535 30.4301 11.1245 30.9582 11.2128C31.3978 11.2865 31.8374 11.3705 32.277 11.4685C32.8776 11.6034 32.9441 11.7752 32.6183 12.3355C32.2473 11.8814 31.6989 11.9681 31.2099 11.8949C30.6761 11.8199 30.1387 11.7722 29.5999 11.7519C29.3482 11.7405 29.2861 11.6435 29.307 11.4219C29.3196 11.2908 29.3097 11.157 29.3097 10.9668Z" fill="#204F9D"/>
        <path d="M42.5779 43.6701C42.6696 43.6701 42.7614 43.6631 42.8526 43.6701C43.2257 43.7037 43.4021 44.0142 43.2428 44.355C43.1664 44.5213 43.023 44.5419 42.8735 44.4975C42.1592 44.2862 41.5245 44.4309 40.931 44.8567C40.836 44.925 40.6876 44.9207 40.564 44.9499C40.5958 44.8188 40.5903 44.6595 40.6667 44.5614C40.8941 44.2777 41.1849 44.0496 41.5164 43.895C41.8479 43.7404 42.2112 43.6634 42.5779 43.6701Z" fill="#204F9D"/>
        <path d="M40.1216 28.6954C40.2573 28.7101 40.3925 28.7258 40.5288 28.7393C40.7002 28.7572 40.781 28.852 40.8035 29.0189C40.8722 29.4849 40.7227 29.6176 40.2612 29.5C39.7215 29.3624 39.2144 29.4605 38.7363 29.7282C38.6335 29.7856 38.5451 29.8728 38.4374 29.9162C38.3297 29.9595 38.211 29.9633 38.0967 29.985C38.1264 29.862 38.1187 29.7076 38.1923 29.6214C38.6956 29.0373 39.3204 28.6878 40.1216 28.6954Z" fill="#204F9D"/>
        <path d="M50.1971 39.3271C50.7807 39.6311 50.895 40.1903 50.4774 40.6335C50.2282 40.8961 49.9652 41.1455 49.6894 41.3807C49.6042 41.4538 49.4366 41.5248 49.3558 41.489C49.2996 41.4566 49.2517 41.4119 49.2158 41.3584C49.1799 41.3048 49.1569 41.2439 49.1487 41.1802C49.1405 41.013 49.1846 40.8473 49.2751 40.7056C49.4201 40.5035 49.6174 40.3355 49.8026 40.1637C50.0009 39.9795 50.1751 39.792 50.1438 39.4951C50.1389 39.448 50.1735 39.3976 50.1971 39.3271Z" fill="#204F9D"/>
        <path d="M30.8786 7.21022C31.4143 6.87049 32.3023 7.01841 32.7205 7.53531L32.3666 7.41611C32.3353 7.473 32.2908 7.51743 32.2875 7.56457C32.2622 7.91514 32.0677 8.02513 31.727 8.01104C31.4522 7.99912 31.3792 7.9509 31.4204 7.68594C31.445 7.57309 31.4766 7.46181 31.5149 7.35272C31.2445 7.39444 31.2445 7.39444 30.6099 7.91297L31.0396 7.21509L30.8835 7.26006L30.8786 7.21022Z" fill="#204F9D"/>
        <path d="M26.7964 42.5156C27.0793 42.5156 27.164 42.6576 27.0662 42.9177C26.9848 43.1344 26.9601 43.3733 26.8656 43.5819C26.8019 43.7223 26.6656 43.9173 26.5513 43.9249C26.4265 43.9325 26.2458 43.7781 26.1666 43.6486C25.865 43.1615 26.2353 42.5151 26.7964 42.5156Z" fill="#204F9D"/>
        <path d="M31.551 10.9797L30.7756 10.3712L30.5278 10.5256C30.4871 10.3804 30.4487 10.2417 30.4097 10.1035C30.8125 10.2417 31.507 10.7423 31.551 10.9797Z" fill="#204F9D"/>
    </g>
    <defs>
        <clipPath id="clip0_690_10198">
            <rect width="57" height="45" fill="white"/>
        </clipPath>
    </defs>
</svg>
