<svg width="30" height="30" viewBox="0 0 30 30" fill="none" xmlns="http://www.w3.org/2000/svg">
    <path d="M20.6237 0C19.0243 0.110625 17.155 1.13437 16.0656 2.4675C15.0718 3.67687 14.2543 5.47312 14.5731 7.21875C16.3206 7.27312 18.1262 6.225 19.1725 4.86937C20.1512 3.6075 20.8918 1.8225 20.6237 0Z" fill="black"/>
    <path d="M26.9443 10.0646C25.4087 8.13898 23.2505 7.02148 21.2124 7.02148C18.5218 7.02148 17.3837 8.3096 15.5143 8.3096C13.5869 8.3096 12.1225 7.02523 9.79562 7.02523C7.51001 7.02523 5.07628 8.4221 3.53316 10.8108C1.3638 14.1746 1.73505 20.4989 5.25065 25.8857C6.50877 27.8132 8.18876 29.9807 10.3862 29.9995C12.3419 30.0182 12.8931 28.7451 15.5425 28.732C18.1918 28.717 18.6943 30.0163 20.6462 29.9957C22.8455 29.9789 24.6174 27.577 25.8755 25.6495C26.7774 24.2676 27.113 23.572 27.8124 22.012C22.7255 20.0752 21.9099 12.8415 26.9443 10.0646Z" fill="black"/>
</svg>
