<svg width="248" height="197" viewBox="0 0 248 197" fill="none" xmlns="http://www.w3.org/2000/svg">
    <g clip-path="url(#clip0_392_12768)">
        <path d="M123.903 164.741C125.486 164.029 127.145 163.462 128.635 162.606C130.968 161.259 133.208 159.76 135.436 158.232C135.874 157.935 136.354 157.302 136.35 156.83C136.319 153.946 137.485 151.495 139.113 149.268C141.93 145.411 145.038 141.78 149.186 139.277C150.749 138.328 152.574 137.724 154.362 137.275C155.82 136.912 156.425 137.638 156.26 139.159C155.882 142.66 154.156 145.546 151.734 147.973C149.186 150.523 146.429 152.866 143.766 155.305C143.216 155.759 142.703 156.256 142.231 156.79C141.992 157.082 141.817 157.677 141.966 157.926C142.114 158.175 142.75 158.429 143.085 158.343C143.93 158.141 144.743 157.822 145.499 157.395C152.001 153.603 157.886 148.855 162.952 143.312C163.855 142.377 164.911 141.602 166.077 141.021C167.079 140.492 167.762 141.125 167.416 142.221C167.165 142.928 166.767 143.575 166.247 144.118C165.259 145.2 164.159 146.177 163.139 147.223C162.627 147.745 162.182 148.322 161.692 148.884L161.874 149.282C162.364 149.202 162.926 149.247 163.33 149.019C166.091 147.458 168.872 145.921 171.545 144.22C177.015 140.722 181.725 136.353 186.16 131.68C186.351 131.478 186.547 131.281 186.757 131.099C187.326 130.598 188.041 130.164 188.656 130.757C188.993 131.082 188.909 131.841 189.005 132.417C189.009 132.628 188.997 132.838 188.969 133.046C189.387 132.645 189.657 132.41 189.901 132.149C191.283 130.669 192.639 129.17 194.04 127.709C194.798 126.919 195.651 126.509 196.67 127.602C197.174 126.891 197.583 126.158 198.128 125.553C198.683 124.889 199.341 124.318 200.079 123.862C200.485 123.624 201.358 123.662 201.65 123.949C201.941 124.236 201.86 124.998 201.798 125.534C201.755 125.894 201.463 126.226 201.253 126.627C201.6 126.94 202.052 127.113 202.521 127.113C202.99 127.113 203.442 126.94 203.789 126.627C204.868 125.74 205.774 124.64 206.704 123.584C207.17 123.057 207.454 122.365 207.945 121.869C209.348 120.446 210.957 120.223 212.726 121.131C213.462 121.525 214.174 121.959 214.861 122.431C216.774 123.703 218.686 123.639 220.556 122.381C225.008 119.388 227.967 115.265 229.641 110.239C230.052 109.006 230.208 107.675 230.712 106.487C231.157 105.541 231.762 104.677 232.5 103.934C232.759 103.659 233.569 103.583 233.904 103.785C234.184 103.953 234.289 104.686 234.207 105.12C233.151 111.081 230.272 116.575 225.959 120.856C224.557 122.253 223.013 123.501 221.352 124.583C219.275 125.939 216.984 125.847 214.725 124.872C214.371 124.72 214.008 124.599 213.869 124.549C213.391 125.157 213.121 125.766 212.645 126.086C211.074 127.147 209.415 127.792 207.505 126.784C207.249 126.649 206.634 126.924 206.333 127.178C204.545 128.691 202.857 130.382 200.509 130.994C199.498 131.257 198.389 131.144 197.325 131.201C195.357 132.239 193.26 133.309 191.195 134.457C190.207 134.965 189.286 135.593 188.455 136.326C186.664 138.018 184.84 139.474 182.239 139.771C181.335 139.873 180.414 140.553 179.666 141.165C174.737 145.243 169.372 148.772 163.669 151.692C162.414 152.287 161.105 152.764 159.76 153.116C158.737 153.412 157.728 153.353 157.353 151.837C155.619 153.194 154.006 154.46 152.394 155.718C149.566 157.914 146.656 159.987 143.295 161.332C141.652 161.992 140.082 162.281 138.353 161.427C137.798 161.152 136.799 161.394 136.158 161.712C131.886 163.82 127.676 166.052 123.394 168.14C122.693 168.481 121.737 168.285 120.91 168.401C120.465 168.454 120.036 168.598 119.65 168.825C116.2 171.012 112.882 173.439 109.291 175.36C106.988 176.594 104.323 177.239 101.752 177.879C99.5816 178.42 97.9893 176.475 98.6228 174.321C98.8619 173.498 99.1297 172.68 99.4931 171.506C98.8141 171.859 98.4124 172.037 98.0419 172.265C92.3303 175.74 86.4585 178.906 80.1539 181.214C76.6456 182.526 72.936 183.23 69.1873 183.295C65.8402 183.34 63.2797 182.22 61.9886 178.959C61.8428 178.593 61.6491 178.247 61.4818 177.886C60.3103 175.384 58.5124 174.269 55.8108 174.855C52.8661 175.52 49.9601 176.343 47.1059 177.322C38.4058 180.235 30.2436 184.355 22.0384 188.392C16.9771 190.883 11.7699 193.081 6.62011 195.397C5.46536 195.918 4.30343 196.438 3.10564 196.858C2.08955 197.214 1.08541 197.062 0.45185 196.099C0.148035 195.674 -0.0115897 195.165 -0.00385123 194.645C0.00388727 194.124 0.178586 193.62 0.494885 193.205C1.08203 192.411 1.77535 191.7 2.55575 191.091C14.2707 181.938 26.4996 173.517 39.0633 165.561C56.0929 154.778 73.7059 144.998 91.5891 135.691C91.9764 135.489 92.3279 135.19 92.7367 135.065C95.5315 134.208 96.6217 132.09 97.5852 129.509C101.138 119.993 104.918 110.559 108.638 101.104C111.067 94.9254 113.472 88.7321 116.028 82.6028C117.412 79.282 117.01 75.9162 116.762 72.5503C116.544 69.4783 116.158 66.4203 115.607 63.3896C115.167 61.0342 114.378 58.7381 113.663 56.442C111.294 48.816 108.832 41.2066 107.925 33.239C107.689 30.8862 107.739 28.5136 108.076 26.1728C108.389 23.8506 109.812 22.1736 112.176 21.3742C114.907 20.4515 117.47 19.2157 119.483 17.0643C118.44 18.848 116.841 20.0174 115.095 21.016C114.378 21.4445 113.623 21.8089 112.841 22.1048C110.211 23.0536 109.298 25.1196 109.078 27.6339C108.736 31.5074 109.556 35.2789 110.366 39.0196C111.421 43.8822 112.638 48.7116 113.905 53.522C114.622 56.2285 115.734 58.8353 116.367 61.556C117.013 64.3147 117.295 67.1587 117.723 69.9672C117.893 71.0986 117.984 72.2443 118.18 73.371C118.897 77.5267 118.022 81.4927 116.587 85.3354C113.255 94.2589 109.788 103.125 106.424 112.044C104.107 118.183 101.881 124.353 99.6031 130.508C99.5146 130.745 99.474 131.011 99.3425 131.544C101.317 130.498 103.065 129.59 104.793 128.648C108.112 126.843 111.433 125.048 114.711 123.178C115.314 122.826 115.797 122.302 116.097 121.675C117.795 117.844 119.509 114.011 121.003 110.099C121.57 108.621 121.567 106.93 121.821 105.336C121.929 104.874 121.993 104.403 122.012 103.93C121.919 101.505 123.062 99.6932 124.659 97.9758C125.433 97.1409 125.921 95.9762 126.332 94.8922C127.542 91.5761 128.78 88.355 131.195 85.6912C131.721 85.1124 131.982 84.1494 132.051 83.3358C132.188 81.8002 132.188 80.2555 132.051 78.7199C131.919 77.3346 132.589 76.9622 133.763 76.8009C136.301 76.4614 138.717 75.5093 140.799 74.028C141.091 73.8341 141.332 73.5735 141.502 73.2681C141.672 72.9627 141.765 72.6214 141.774 72.2727C142.611 63.4963 143.381 54.7199 144.423 45.9814C145.09 40.3787 146.221 34.833 147.053 29.2469C147.292 27.5865 147.498 25.8407 147.292 24.1827C146.948 21.3552 144.973 19.5596 142.559 18.3072C138.87 16.3977 135.066 15.6268 131.147 17.7189C130.691 17.9588 130.263 18.2484 129.871 18.5824C129.225 19.1445 128.565 19.2062 127.771 18.9239C125.417 18.089 124.243 18.6298 123.334 20.9686C122.28 23.6869 121.266 26.4242 120.128 29.4224C122.607 29.7379 124.874 30.0795 127.152 30.2787C127.785 30.2942 128.402 30.0828 128.89 29.6833C132.237 26.8369 136.17 26.3151 140.345 26.9105C141.796 27.1168 143.214 27.6221 144.648 27.8759C145.631 28.0443 145.937 28.4784 145.693 29.4011C145.571 29.8494 145.506 30.3167 145.408 30.8243L144.108 30.6843C144.031 31.7138 143.962 32.6721 143.89 33.6327H143.718C143.615 33.2817 143.503 32.933 143.414 32.5796C142.697 29.7332 142.135 29.235 139.192 29.0216C136.756 28.8531 134.327 28.8579 132.001 29.7498C131.515 29.9249 131.047 30.144 130.602 30.4044C128.819 31.4979 128.498 32.2475 129.024 34.2518C129.777 37.1172 131.052 39.6553 133.806 41.1971L133.533 41.5054C132.651 40.7938 131.575 40.2079 130.934 39.3208C129.878 37.8573 129.146 36.1684 128.195 34.6242C127.743 33.8889 127.095 33.2722 126.535 32.6009C125.986 33.2414 125.23 33.7869 124.919 34.5388C123.564 37.779 122.289 41.0571 121.094 44.3566C120.649 45.5711 121.885 47.2528 123.547 47.8031C124.288 48.0403 125.099 48.0854 125.981 48.2348V51.4181C122.155 52.6966 120.939 56.4752 123.573 58.9682C124.104 58.062 124.558 57.3267 123.755 56.2166C122.576 54.5871 123.437 52.9433 125.428 52.782C130.387 52.3763 135.255 52.9883 140.075 54.0913C139.491 57.7323 136.041 60.9488 132.08 61.7505C130.375 62.0945 128.733 62.0375 127.19 61.2761C126.213 60.8017 125.593 61.0033 125.161 61.9284C124.697 62.9199 125.056 63.8569 126.088 64.2293C128.613 65.17 131.395 65.1785 133.925 64.253C134.145 64.1747 134.368 64.1012 134.628 64.0158C133.672 65.2018 131.453 66.2218 129.467 66.1648C128.297 66.1292 127.695 66.587 127.293 67.5477C127.002 68.238 126.662 68.914 126.435 69.6256C126.043 70.8638 126.253 71.1745 127.58 71.3026C131.226 71.656 134.714 70.9658 138.1 69.6422C138.425 69.5165 138.75 69.386 139.094 69.2484C139.235 71.841 138.219 73.5181 135.867 74.1822C133.13 75.0016 130.351 75.6762 127.542 76.2032C125.603 76.5376 125.151 75.9897 124.931 74.0565C124.893 73.7054 124.793 73.3283 124.871 72.9962C125.395 70.795 124.422 69.1322 123.198 67.3864C118.464 60.6807 117.163 53.05 117.493 45.0563C117.57 43.237 117.41 41.6454 116.298 40.0585C115.363 38.7302 114.832 37.0911 114.297 35.5303C114.003 34.6764 113.611 34.1071 112.803 33.6944C111.624 33.1014 111.098 30.9951 111.873 29.9229C112.078 29.6407 112.59 29.4651 112.98 29.4485C114.811 29.375 116.645 29.4011 118.478 29.3275C118.839 29.3133 119.435 29.1022 119.511 28.8531C120.468 26.0613 121.343 23.2457 122.342 20.1147L119.951 20.9733C121.371 19.3722 122.617 17.9182 123.92 16.5211C124.446 15.9589 125.099 15.9186 125.72 16.4855C125.989 16.7214 126.277 16.9348 126.581 17.1236C128.302 18.2337 128.47 18.0724 129.928 16.7227C130.88 15.8321 132.025 15.1693 133.275 14.7848C135.874 13.98 138.63 13.8067 141.311 14.2795C145.643 15.0813 148.483 18.6464 148.822 23.6086C149.107 27.7098 148.323 31.7043 147.778 35.7367C146.603 44.4341 145.518 53.1354 144.521 61.8407C143.603 69.7655 142.781 77.7023 141.99 85.639C141.483 90.7104 141.115 95.796 140.672 100.874C140.493 102.919 140.273 104.961 140.086 107.006C140.017 107.744 139.988 108.486 139.924 109.513C140.847 109.079 141.552 108.766 142.241 108.422C147.323 105.879 152.405 103.335 157.484 100.789C158.46 100.3 159.45 99.9754 160.693 100.765C160.152 101.446 159.736 102.103 159.189 102.642C157.037 104.793 154.462 106.335 151.73 107.689C140.335 113.344 128.89 118.906 117.63 124.813C102.57 132.7 87.6586 140.807 72.7759 148.953C64.4822 153.49 56.2172 158.109 48.1507 163.038C40.0841 167.967 32.3212 173.237 24.4937 178.456C18.5478 182.424 12.7095 186.556 6.8305 190.626C5.92917 191.248 4.96568 191.839 4.67878 193.366C5.39602 193.193 5.98655 193.155 6.47427 192.925C12.1118 190.252 17.6991 187.469 23.3701 184.874C30.7815 181.482 38.193 178.112 45.7073 174.962C48.911 173.617 52.3418 172.777 55.7152 171.878C56.8723 171.567 58.1777 171.615 59.3922 171.736C62.2325 172.02 63.9849 173.664 64.86 176.337C65.7613 179.094 67.0834 180.114 70.0265 180.197C74.2773 180.315 78.313 179.248 82.2196 177.706C89.4398 174.86 96.1125 171.029 102.422 166.558C103.108 166.083 103.646 165.336 104.15 164.643C108.872 158.184 113.446 151.619 118.311 145.269C122.476 139.863 127.193 134.9 132.388 130.458C132.661 130.221 132.916 129.898 133.234 129.815C133.846 129.693 134.466 129.614 135.09 129.578C135.133 130.204 135.415 130.932 135.185 131.438C131.671 139.235 127.355 146.528 121.515 152.878C116.511 158.315 111.103 163.315 105.48 168.116C104.098 169.302 103.165 171.105 102.321 172.772C101.604 174.196 102.477 175.144 104.031 174.734C105.716 174.29 107.478 173.878 108.973 173.04C111.978 171.343 114.892 169.49 117.701 167.49C118.789 166.719 119.478 165.403 120.386 164.368C121.156 163.436 121.996 162.564 122.899 161.759C123.188 161.522 123.894 161.759 124.408 161.78C124.376 162.215 124.31 162.647 124.209 163.071C124.034 163.534 123.828 163.986 123.592 164.423C123.709 164.532 123.808 164.636 123.903 164.741ZM123.884 117.559L124.171 117.758C126.975 116.276 129.737 114.717 132.606 113.349C133.911 112.727 134.602 111.826 135.092 110.545C136.658 106.446 138.277 102.369 139.919 98.2984C140.904 95.86 141.115 93.4358 140.158 90.931C139.152 88.2696 138.09 85.6177 137.289 82.8946C136.754 81.08 135.326 80.6151 133.942 79.8608C133.832 80.079 133.736 80.1786 133.739 80.2783C133.777 84.3249 133.287 88.4071 134.678 92.3589C134.879 92.9372 134.868 93.5668 134.647 94.1379C131.929 99.8924 129.113 105.599 126.402 111.356C125.457 113.373 124.716 115.488 123.884 117.559ZM125.691 57.386L125.44 57.6232C125.57 58.0834 125.581 58.6361 125.854 58.9895C126.77 60.1755 128.123 60.3724 129.514 60.2941C132.759 60.1091 135.46 58.6859 137.844 56.5914C137.987 56.4657 138.009 56.2048 138.162 55.811L135.671 56.0269L137.469 54.4756C136.72 54.3166 136.321 54.1482 135.926 54.1601C132.747 54.2502 129.565 54.3475 126.385 54.5017C125.091 54.5633 124.671 55.2844 125.132 56.4894C125.288 56.8057 125.476 57.106 125.691 57.386ZM110.902 159.857C110.983 159.94 111.062 160.023 111.141 160.094C111.425 159.906 111.694 159.697 111.944 159.468C115.6 155.575 119.387 151.794 122.844 147.733C125.034 145.157 126.751 142.183 128.632 139.355C129.053 138.725 129.27 137.961 129.588 137.259L129.263 137.102C122.192 143.879 116.022 151.523 110.902 159.85V159.857ZM139.778 153.626C139.96 153.955 140.079 154.37 140.208 154.373C140.572 154.373 141.043 154.332 141.291 154.109C144.316 151.389 147.378 148.701 150.276 145.85C151.287 144.856 151.928 143.478 152.629 142.197C152.834 141.825 152.66 141.248 152.66 140.774C152.22 140.855 151.703 140.819 151.352 141.033C147.286 143.389 143.824 146.645 141.234 150.547C140.61 151.476 140.256 152.582 139.778 153.626ZM120.09 36.2657C119.824 35.0465 120.09 34.5175 121.285 34.2613C121.99 34.144 122.704 34.0979 123.418 34.1237C123.972 34.1237 124.453 34.1522 124.491 33.3908C124.53 32.6294 124.116 32.3803 123.487 32.359C122.654 32.319 121.82 32.3301 120.989 32.3922C119.392 32.5345 118.949 33.035 118.871 34.6456C118.888 35.0005 118.884 35.3562 118.859 35.7106C118.603 37.2074 118.313 38.697 118.036 40.189L117.493 40.1154C117.749 38.2178 118.003 36.306 118.261 34.3752C117.829 34.3064 117.404 34.2 116.991 34.0573C116.701 33.8821 116.433 33.6718 116.195 33.4311C116.525 33.2485 116.848 32.9188 117.183 32.9093C118.801 32.8618 119.074 32.5511 118.804 30.8385C116.475 30.4851 114.785 32.0459 114.94 34.5531C115.143 37.8454 116.53 40.623 118.945 42.8907C119.188 43.0831 119.448 43.2538 119.722 43.4007C118.667 41.7521 118.674 41.5813 119.841 39.8854C120.178 39.3967 120.477 38.882 120.728 38.4811C121.147 38.1419 121.823 37.8525 121.833 37.5323C121.866 36.5693 121.646 35.5991 121.524 34.6314L121.225 34.4558L120.09 36.2657ZM123.753 63.0694C123.461 61.7055 123.317 60.5788 122.968 59.5113C122.619 58.4439 122.012 57.4358 121.603 56.3684C121.295 55.562 121.125 54.708 120.886 53.8707C120.489 52.4475 121.041 51.3469 122.081 50.4028C123.494 49.1314 123.487 49.1196 122.263 47.6489C122.135 47.4494 121.967 47.2788 121.768 47.1484C121.144 46.8685 120.386 46.323 119.889 46.4914C119.392 46.6598 118.949 47.5564 118.906 48.1518C118.737 50.5855 118.682 53.0286 118.679 55.4694C118.694 59.018 120.951 61.1053 123.76 63.0765L123.753 63.0694Z" fill="#204F9D"/>
        <path d="M221.158 99.1475C218.703 91.671 213.587 86.7657 206.362 83.5943C206.878 84.8562 207.416 85.9378 207.768 87.0764C208.898 90.7222 208.87 94.4913 208.724 98.2414C208.565 103.221 207.757 108.16 206.319 112.934C205.949 114.082 205.499 115.204 204.973 116.29C205.437 113.304 206.015 110.329 206.34 107.326C207.01 101.159 207.416 94.961 206.52 88.77C206.374 87.7643 206.01 86.7846 205.697 85.8074C205.095 83.9216 203.545 83.0179 201.838 82.3727C196.433 80.3447 190.772 79.0621 185.014 78.5609C184.027 78.4708 183.365 78.7435 182.796 79.5382C178.432 85.62 173.873 91.5714 169.718 97.7884C165.608 103.932 161.895 110.341 158.029 116.601C158.493 115.446 158.952 114.203 159.483 112.993C165.139 100.019 172.953 88.0806 182.597 77.6761C182.955 77.2428 183.127 76.6874 183.075 76.1296C181.954 68.5913 180.697 61.0721 179.63 53.5291C178.827 47.86 178.258 42.1601 177.567 36.4767C177.254 33.8912 176.95 31.301 176.537 28.7298C176.262 27.0267 175.102 25.7481 173.718 24.9156C170.385 22.9207 167.024 20.9187 163.514 19.2797C156.164 15.814 148.356 13.3998 140.323 12.1091C137.69 11.6872 135.034 11.4258 132.369 11.3263C128.003 11.1769 124.032 12.408 120.637 15.2876C120.372 10.6669 123.081 7.41253 130.248 6.99742L127.14 6.49456C127.379 4.54239 129.07 2.69935 131.169 2.62344C133.999 2.53093 136.61 1.71259 139.298 1.00573C141.569 0.407985 143.974 0.315477 146.322 0L146.372 0.332081L138.822 2.09449V2.51907C149.258 3.01719 159.201 5.41767 168.594 10.0407C169.211 9.03498 168.848 8.29254 168.386 7.59754C166.952 5.43664 164.8 4.1605 162.541 3.04091C161.761 2.65665 160.949 2.34117 160.181 1.94267C166.199 3.33741 170.76 6.60367 173.57 12.1684C173.876 12.7062 174.281 13.1818 174.765 13.5703C175.509 14.2202 176.372 14.742 177.103 15.4062C178.526 16.6966 178.87 18.459 178.129 20.302L176.596 19.5121C177.459 20.7978 178.38 21.8462 178.93 23.0701C180.173 25.8193 180.166 28.5756 178.495 31.2251C178.264 31.6268 178.172 32.0927 178.234 32.5511C179.547 41.1757 181.007 49.7813 182.188 58.4249C182.98 64.2126 183.413 70.0478 183.929 75.871C184.025 76.9456 184.424 77.3322 185.457 77.5457C191.766 78.8455 198.106 80.0458 204.344 81.6208C209.759 82.9894 214.624 85.4943 217.94 90.2407C219.812 92.9187 220.826 95.9192 221.158 99.1475Z" fill="#204F9D"/>
        <path d="M190.119 163.381C192.431 163.36 194.329 162.639 196.172 161.837C200.789 159.833 204.471 156.598 207.815 152.935C208.239 152.461 208.688 151.903 209.238 151.721C209.788 151.538 210.481 151.782 211.11 151.842C211.019 152.416 211.129 153.161 210.804 153.533C209.166 155.416 207.423 157.212 205.697 159.019C205.126 159.617 204.502 160.163 203.895 160.734L204 161.076C204.626 161.056 205.25 161.001 205.869 160.912C208.738 160.341 211.103 158.777 213.185 156.861C218.66 151.797 224.018 146.604 229.505 141.552C232.711 138.596 236.06 135.795 239.372 132.956C239.881 132.514 240.471 132.173 241.11 131.952C241.49 131.824 242.157 131.907 242.394 132.166C242.63 132.424 242.659 133.131 242.461 133.442C241.983 134.212 241.391 134.905 240.703 135.499C238.693 137.176 236.543 138.691 234.576 140.413C232.534 142.202 230.956 144.313 231.018 147.233C231.104 151.253 234.365 153.445 238.078 151.868C239.938 151.078 241.681 150.013 243.529 149.183C244.509 148.754 245.541 148.452 246.599 148.286C247.818 148.092 248.356 148.886 247.744 149.946C247.376 150.555 246.889 151.083 246.31 151.5C242.855 154.045 238.862 155.404 234.743 156.384C228.823 157.791 222.88 159.1 216.936 160.39C212.8 161.289 209.097 162.947 206.037 165.927C203.194 168.692 200.265 171.382 197.43 174.136C193.432 178.024 188.565 180.681 183.912 183.638C183.299 184.008 182.63 184.277 181.93 184.433C181.576 184.521 181.144 184.291 180.735 184.196C180.857 183.778 180.847 183.211 181.125 182.972C181.899 182.293 182.744 181.698 183.644 181.195C189.729 177.874 195.106 173.645 200.081 168.861C201.738 167.272 203.529 165.818 205.267 164.311C205.488 164.154 205.723 164.018 205.97 163.906C205.872 163.749 205.774 163.59 205.673 163.431C204.717 163.733 203.777 164.046 202.821 164.33C202.26 164.523 201.682 164.664 201.095 164.753C199.899 164.881 199.268 164.174 198.943 162.964C198.03 163.438 197.234 163.951 196.366 164.28C194.293 165.068 192.218 165.886 190.083 166.472C188.13 167.008 186.898 166.446 185.854 164.828C183.702 166.033 181.498 167.2 179.346 168.467C174.543 171.266 169.838 174.25 164.587 176.209C161.207 177.471 157.731 178.261 154.097 178.216C152.514 178.197 151.792 177.77 151.706 176.812C151.605 175.661 152.492 174.677 153.896 174.44C154.443 174.336 155.003 174.312 155.557 174.369C159.11 174.829 162.438 173.925 165.723 172.775C174.992 169.53 183.107 164.311 190.327 157.831C197.38 151.5 204.062 144.764 210.914 138.212C211.483 137.669 212.05 137.026 212.745 136.737C213.259 136.523 214.058 136.677 214.579 136.953C214.773 137.055 214.754 138.139 214.467 138.466C212.736 140.411 210.981 142.351 209.08 144.133C203.753 149.114 198.336 154.019 192.985 158.986C191.752 160.172 190.664 161.47 190.119 163.381ZM214.768 157.971L215.007 158.343C215.424 158.322 215.839 158.275 216.25 158.201C217.178 157.978 218.093 157.712 219.014 157.459C221.883 156.669 224.773 155.893 227.642 155.087C228.321 154.892 229.204 154.679 228.446 153.663C227.2 152.003 227.088 150.181 227.513 148.25C227.633 147.705 227.695 147.145 227.783 146.59L227.508 146.443C227.126 146.749 226.717 147.031 226.366 147.37C225.706 147.999 225.118 148.704 224.434 149.304C221.565 151.811 218.67 154.285 215.801 156.79C215.429 157.159 215.084 157.554 214.768 157.971Z" fill="#204F9D"/>
        <path d="M240.706 116.181C240.804 114.544 240.773 112.889 241.024 111.276C241.652 107.262 242.406 103.27 243.116 99.2685C243.438 97.4492 244.311 96.0117 246.073 95.2361C247.149 94.7617 247.864 95.2361 247.692 96.3889C246.759 102.613 245.442 108.723 242.468 114.376C242.109 115.054 241.64 115.673 241.222 116.321L240.706 116.181Z" fill="#204F9D"/>
        <path d="M145.217 133.001C145.375 132.576 145.442 132.083 145.695 131.741C146.613 130.555 147.426 129.206 148.598 128.345C151.041 126.542 153.657 124.955 156.27 123.394C157.465 122.683 158.706 123.323 159.447 124.763C160.054 125.949 159.789 127.026 158.584 127.661C157.716 128.119 156.736 128.359 155.835 128.76C152.872 130.083 149.925 131.44 146.967 132.773C146.489 132.987 145.994 133.146 145.506 133.328L145.217 133.001Z" fill="#204F9D"/>
        <path d="M127.523 48.0095C130.081 48.389 132.398 48.6998 134.695 49.0864C136.608 49.409 138.521 49.7767 140.433 50.206C143.046 50.7966 143.336 51.5486 141.918 54.0012C140.304 52.0135 137.918 52.393 135.79 52.0728C133.468 51.7443 131.13 51.5353 128.785 51.4466C127.69 51.3967 127.42 50.9722 127.511 50.002C127.566 49.428 127.523 48.8421 127.523 48.0095Z" fill="#204F9D"/>
        <path d="M185.251 191.179C185.65 191.179 186.05 191.148 186.446 191.179C188.07 191.326 188.837 192.685 188.144 194.177C187.812 194.905 187.188 194.996 186.537 194.801C183.429 193.876 180.668 194.509 178.086 196.374C177.672 196.673 177.027 196.654 176.489 196.782C176.627 196.208 176.604 195.51 176.936 195.081C177.925 193.839 179.19 192.84 180.633 192.163C182.075 191.486 183.656 191.15 185.251 191.179Z" fill="#204F9D"/>
        <path d="M174.564 125.622C175.155 125.686 175.743 125.754 176.336 125.814C177.082 125.892 177.433 126.307 177.531 127.038C177.83 129.078 177.18 129.659 175.171 129.144C172.824 128.542 170.617 128.971 168.537 130.143C168.09 130.394 167.705 130.776 167.236 130.966C166.768 131.156 166.251 131.172 165.754 131.267C165.883 130.729 165.85 130.053 166.17 129.675C168.36 127.118 171.078 125.588 174.564 125.622Z" fill="#204F9D"/>
        <path d="M218.402 172.167C220.941 173.498 221.438 175.946 219.621 177.886C218.537 179.036 217.393 180.128 216.193 181.157C215.822 181.478 215.093 181.788 214.742 181.632C214.497 181.49 214.289 181.294 214.132 181.06C213.976 180.825 213.876 180.559 213.84 180.28C213.805 179.548 213.996 178.822 214.39 178.202C215.021 177.317 215.88 176.582 216.685 175.83C217.548 175.023 218.306 174.203 218.17 172.903C218.149 172.696 218.299 172.476 218.402 172.167Z" fill="#204F9D"/>
        <path d="M134.349 31.5642C136.68 30.077 140.543 30.7246 142.362 32.9874L140.823 32.4656C140.687 32.7147 140.493 32.9092 140.479 33.1155C140.369 34.6502 139.522 35.1317 138.04 35.0701C136.845 35.0179 136.527 34.8068 136.706 33.6469C136.813 33.1528 136.95 32.6657 137.117 32.1881C135.941 32.3707 135.941 32.3707 133.179 34.6407L135.049 31.5856L134.37 31.7825L134.349 31.5642Z" fill="#204F9D"/>
        <path d="M116.587 186.124C117.819 186.124 118.187 186.746 117.761 187.884C117.407 188.833 117.3 189.879 116.889 190.792C116.611 191.407 116.018 192.261 115.521 192.294C114.978 192.327 114.192 191.651 113.847 191.084C112.535 188.952 114.146 186.122 116.587 186.124Z" fill="#204F9D"/>
        <path d="M137.275 48.0663L133.901 45.4025L132.823 46.0785C132.646 45.4428 132.479 44.8356 132.309 44.2307C134.062 44.8356 137.084 47.0273 137.275 48.0663Z" fill="#204F9D"/>
    </g>
    <defs>
        <clipPath id="clip0_392_12768">
            <rect width="248" height="197" fill="white"/>
        </clipPath>
    </defs>
</svg>
