<svg width="20" height="20" viewBox="0 0 20 20" fill="none" xmlns="http://www.w3.org/2000/svg">
    <path fill-rule="evenodd" clip-rule="evenodd" d="M7.12834 11.9878C6.23091 10.8646 5.79762 9.44037 5.91746 8.00768C6.0373 6.57499 6.70118 5.24257 7.77274 4.28407C8.8443 3.32557 10.2422 2.81375 11.6793 2.85374C13.1165 2.89373 14.4838 3.48249 15.5004 4.49909C16.517 5.51569 17.1057 6.88297 17.1457 8.32011C17.1857 9.75725 16.6739 11.1552 15.7154 12.2267C14.7569 13.2983 13.4245 13.9621 11.9918 14.082C10.5591 14.2018 9.13488 13.7685 8.01167 12.8711L3.71584 17.1678C3.65862 17.2292 3.58962 17.2784 3.51296 17.3126C3.43629 17.3468 3.35353 17.3651 3.26961 17.3666C3.18569 17.3681 3.10233 17.3526 3.02451 17.3212C2.94669 17.2898 2.87599 17.243 2.81664 17.1836C2.75729 17.1243 2.71051 17.0536 2.67907 16.9758C2.64764 16.898 2.6322 16.8146 2.63368 16.7307C2.63516 16.6468 2.65353 16.564 2.68769 16.4873C2.72185 16.4107 2.7711 16.3417 2.83251 16.2844L7.12834 11.9878ZM8.43001 5.38278C9.0417 4.77114 9.82099 4.35457 10.6694 4.1857C11.5177 4.01684 12.3971 4.10326 13.1964 4.43404C13.9957 4.76482 14.679 5.32512 15.1599 6.04412C15.6409 6.76313 15.8979 7.60856 15.8984 8.47359C15.899 9.33861 15.6432 10.1844 15.1632 10.904C14.6832 11.6237 14.0007 12.1849 13.2019 12.5168C12.403 12.8486 11.5237 12.9362 10.6751 12.7685C9.82653 12.6008 9.04669 12.1853 8.43418 11.5744L8.43001 11.5703L8.42668 11.5661C7.60782 10.7454 7.14823 9.63313 7.14886 8.47375C7.14948 7.31437 7.61027 6.20265 8.43001 5.38278Z" fill="#B0B0B0"/>
</svg>
